<svg xmlns="http://www.w3.org/2000/svg" viewBox="0 0 840 141"><defs><style>.cls-1{fill:#e9580a;}.cls-2{fill:#020202;}</style></defs><title>Asset 1</title><g id="Layer_2" data-name="Layer 2"><g id="Layer_1-2" data-name="Layer 1"><path class="cls-1" d="M664,0H787c.19.78.79.88,1.47,1,24.67,5.11,39.8,20.56,47.82,43.89,1.48,4.32,1.39,9,3.72,13.09V84c-1.85,1.33-1.52,3.48-2,5.32-6.22,23.81-19.73,41.09-43.73,49.09-2.74.91-5.83.71-8.26,2.59H758L800.42,29.72H719.8L713,60.66h40c.29,2.66-.85,4.21-1.52,5.87-8,19.72-16,39.4-23.91,59.16-2,5-4.75,9.82-5.51,15.32H653c.41-1.58,1.81-2.3,2.86-3.32C691.67,102.84,701.93,38.49,664,0Z"/><path class="cls-2" d="M31,0h75c.35,1.43,1.54.85,2.42,1,9.34,1.72,17.89,5.14,24.84,11.82C146,25,148.12,47.06,138.47,64.69c-8,14.57-20.58,22.55-36.93,25.75,1.34,3.16,2.56,6,3.77,8.93,5.82,13.91,12.51,27.44,17.69,41.63H87c-5.61-16.47-13.5-32-19.76-47.89h-21L36,141H0v-5c1.7-.49,1.44-2.16,1.69-3.28Q16.42,66.38,31,0ZM53,62.94c12.33,0,24.14.11,35.95-.05a19.66,19.66,0,0,0,13.26-5c5.26-4.81,7.66-10.8,6-18-1.37-5.94-5.73-9.09-11.33-9.75-12.07-1.43-24.21-.4-36.45-.65Z"/><path class="cls-2" d="M547,0h58c.17.8.77.9,1.46,1,29.16,3,57,24.17,55.85,62.72-1.08,36.39-24.47,66.27-60,74.37-4.75,1.08-9.73,1-14.3,2.94H517c-1.26-1.64,0-3.22.31-4.7,7.41-33.77,15-67.49,22.37-101.27C542.22,23.38,545.47,11.87,547,0Zm11.62,111.5c6.9,0,13,.12,19.18,0,27.47-.62,45.61-16.83,48.83-43.55,2.19-18.23-7.74-34.18-23.83-37.49-8.47-1.74-17.15-1-26-.8Z"/><path class="cls-2" d="M222,0h43l31,141H260l-4.75-22.94h-65.9L176,141H141c-.93-1.68.56-2.68,1.21-3.79,19.85-34,39.83-67.84,59.6-101.85C208.62,23.62,216.1,12.26,222,0ZM207.11,87.84h41.31L237.08,36.68Z"/><path class="cls-2" d="M344,0h70c.59,1.57,2,.82,3,1,21.28,3,36,18.87,36.2,39.21A51.81,51.81,0,0,1,413.26,91c-7.35,1.69-14.81,1.9-22.31,1.85-10.61-.07-21.21,0-31.83,0-2.42,10.74-4.84,20.94-7,31.19-1.17,5.63-3.29,11.1-3.15,17H313a27.92,27.92,0,0,1,.33-3.41q4.75-21.65,9.57-43.28Q333.43,47.15,344,0Zm21.78,62.87c11.45,0,22.58.4,33.66-.12,9.41-.44,16.31-7.09,18-15.92,1.57-8.39-2.58-15.19-11-16.53-11-1.74-22.09-.58-33.27-.78Z"/><path class="cls-2" d="M453,141q12.85-58.3,25.69-116.6C480.48,16.27,482.23,8.13,484,0h36q-9.88,44.47-19.75,88.95c-3.82,17.34-7.5,34.7-11.25,52.05Z"/></g></g></svg>